<?xml version="1.0" standalone="no"?>
<!DOCTYPE svg PUBLIC "-//W3C//DTD SVG 1.1//EN" "http://www.w3.org/Graphics/SVG/1.1/DTD/svg11.dtd"><svg t="1677059445029"
  class="icon" viewBox="0 0 1024 1024" version="1.1" xmlns="http://www.w3.org/2000/svg" p-id="8598"
  xmlns:xlink="http://www.w3.org/1999/xlink" width="200" height="200">
  <path
    d="M1008.718575 399.809772l-58.325913 57.043429-159.73244-158.449956 58.325913-57.043429c17.738014-17.738014 45.627518-20.284918 60.836691-5.075745l105.217851 102.68901C1029.003493 354.164191 1026.456588 382.053696 1008.718575 399.809772L1008.718575 399.809772 1008.718575 399.809772 1008.718575 399.809772zM762.788781 325.010266l160.99686 157.185535L540.937167 859.968531c-1.264421 1.264421-6.358229 6.340166-13.944752 7.604586-1.264421 0-1.264421 0-2.546904 1.264421L324.161298 930.974775c-5.075745 1.264421-11.415911 1.264421-15.227236-2.546904-3.793262-3.793262-5.057682-8.869007-2.546904-15.227236l63.401658-196.490951c0-1.246357 0-1.246357 1.264421-2.528841 1.264421-6.358229 6.340166-13.944752 8.850944-15.227236l73.535086-67.176857L210.07444 631.776751c-10.151491 0-19.020497-11.433974-19.020497-20.284918 0-10.169554 8.869007-21.549339 19.020497-21.549339l281.423884 0L762.788781 325.010266 762.788781 325.010266 762.788781 325.010266zM491.498324 847.288199l-98.895749-97.595202-26.625084 82.404092 41.834256 41.834256L491.498324 847.288199 491.498324 847.288199 491.498324 847.288199zM757.713036 387.129441c-5.075745-5.057682-15.227236-5.057682-20.284918 0L436.965673 681.233657c-6.340166 5.057682-6.340166 15.209173 0 20.284918 5.075745 5.057682 15.227236 5.057682 20.284918 0l299.179961-294.104216C762.788781 402.338614 762.788781 393.469607 757.713036 387.129441L757.713036 387.129441 757.713036 387.129441 757.713036 387.129441zM89.629353 961.39312c-10.133427 0-20.266855-3.811325-20.266855-13.944752L69.362498 146.275392C68.098077 127.254895 80.778409 131.06622 94.705098 131.06622l69.723761 0 0 26.625084c0 10.151491 11.397848 19.020497 22.813759 19.020497 10.151491 0 22.831822-8.869007 22.831822-19.020497L210.07444 131.06622l103.953431 0 0 26.625084c0 10.151491 11.397848 19.020497 22.813759 19.020497 10.151491 0 22.831822-8.869007 22.831822-19.020497L359.673452 131.06622l95.084424 0 0 26.625084c0 10.151491 11.397848 19.020497 22.813759 19.020497 10.169554 0 22.831822-8.869007 22.831822-19.020497L500.403457 131.06622l95.084424 0 0 26.625084c0 10.151491 11.415911 19.020497 22.831822 19.020497 10.133427 0 22.813759-8.869007 22.813759-19.020497L641.133463 131.06622l79.857188 0c10.151491 0 16.491656 5.057682 16.491656 15.209173l0 131.842935 58.325913-57.043429L795.80822 146.275392c0-41.834256-31.700829-72.252602-74.817569-72.252602l-81.121609 0L639.869042 24.565885c0-10.151491-11.415911-19.020497-22.831822-19.020497-10.133427 0-22.813759 8.869007-22.813759 19.020497l0 49.438843-95.084424 0L499.139037 24.565885c0-10.151491-11.397848-19.020497-22.831822-19.020497-10.151491 0-22.813759 8.869007-22.813759 19.020497l0 49.438843-95.084424 0L358.409032 24.565885c0-10.151491-11.415911-19.020497-22.831822-19.020497-10.151491 0-22.813759 8.869007-22.813759 19.020497l0 49.438843L208.810019 74.004727 208.810019 24.565885c0-10.151491-11.415911-19.020497-22.831822-19.020497-10.151491 0-22.813759 8.869007-22.813759 19.020497l0 49.438843-68.45934 0c-57.043429 0-84.932933 30.418345-84.932933 72.252602l0 799.908555c0 41.816193 38.022932 72.252602 81.139672 72.252602l628.778268 0c43.098677 0 74.799506-30.436409 74.799506-72.252602l0-276.366202-58.325913 57.043429 0 220.56913c0 10.151491-6.340166 13.944752-16.473593 13.944752M587.829106 290.798659 208.810019 290.798659c-10.151491 0-17.738014 12.662268-17.738014 21.531275 0 10.151491 7.604586 21.549339 17.738014 21.549339l379.019086 0c10.169554 0 17.756077-12.680332 17.756077-21.549339S597.980596 290.798659 587.829106 290.798659L587.829106 290.798659 587.829106 290.798659 587.829106 290.798659zM587.829106 436.568284 208.810019 436.568284c-10.151491 0-17.738014 12.662268-17.738014 21.549339 0 10.151491 7.604586 21.531275 17.738014 21.531275l379.019086 0c10.169554 0 17.756077-12.680332 17.756077-21.531275C605.585183 449.230552 597.980596 436.568284 587.829106 436.568284L587.829106 436.568284 587.829106 436.568284 587.829106 436.568284zM587.829106 436.568284"
    fill="#272636" p-id="8599"></path>
</svg>