<?xml version="1.0" standalone="no"?><!DOCTYPE svg PUBLIC "-//W3C//DTD SVG 1.1//EN" "http://www.w3.org/Graphics/SVG/1.1/DTD/svg11.dtd"><svg t="1677768032531" class="icon" viewBox="0 0 1024 1024" version="1.1" xmlns="http://www.w3.org/2000/svg" p-id="905" xmlns:xlink="http://www.w3.org/1999/xlink" width="200" height="200"><path d="M725.333333 896H298.666667c-128 0-213.333333-64-213.333334-213.333333V384c0-149.333333 85.333333-213.333333 213.333334-213.333333h426.666666c128 0 213.333333 64 213.333334 213.333333v298.666667c0 149.333333-85.333333 213.333333-213.333334 213.333333z" fill="#24244A" p-id="906"></path><path d="M511.957333 624.042667c-35.84 0-72.106667-11.093333-99.84-33.706667l-133.546666-106.666667a31.914667 31.914667 0 0 1 39.68-49.92l133.546666 106.666667c32.426667 26.026667 87.466667 26.026667 119.893334 0l133.546666-106.666667c13.653333-11.093333 34.133333-8.96 44.8 5.12 11.093333 13.653333 8.96 34.133333-5.12 44.8l-133.546666 106.666667c-27.306667 22.613333-63.573333 33.706667-99.413334 33.706667z" fill="#FFFFFF" p-id="907"></path></svg>